<svg width="62" height="62" viewBox="0 0 62 62" fill="none" xmlns="http://www.w3.org/2000/svg">
<g clip-path="url(#clip0_511_1540)">
<path d="M30.9997 2.58336C23.5428 2.50759 16.3609 5.3956 11.0324 10.6127C5.7039 15.8298 2.6648 22.949 2.58301 30.4059C2.61174 36.2989 4.50744 42.0312 7.99784 46.7794C11.4882 51.5276 16.3937 55.0475 22.0097 56.8334C23.4305 57.0917 23.9472 56.2392 23.9472 55.49V50.7625C16.0422 52.4417 14.363 47.0425 14.363 47.0425C13.8368 45.3476 12.718 43.8987 11.2113 42.9609C8.62801 41.2559 11.418 41.2817 11.418 41.2817C12.3109 41.4011 13.1653 41.7211 13.9169 42.2177C14.6685 42.7143 15.298 43.3746 15.758 44.1492C16.5597 45.5393 17.8751 46.5592 19.4212 46.9892C20.9673 47.4192 22.6204 47.225 24.0247 46.4484C24.1691 45.0337 24.8097 43.7158 25.833 42.7284C19.5297 42.0309 12.9163 39.6542 12.9163 28.985C12.86 26.202 13.8883 23.5061 15.7838 21.4675C14.9206 19.0781 15.0225 16.4463 16.068 14.1309C16.068 14.1309 18.4705 13.3817 23.818 16.9725C28.4729 15.7321 33.3714 15.7321 38.0263 16.9725C43.4513 13.3817 45.7763 14.1309 45.7763 14.1309C46.8218 16.4463 46.9238 19.0781 46.0605 21.4675C48.0001 23.4687 49.0842 26.1465 49.083 28.9334C49.083 39.6284 42.418 41.9792 36.1663 42.6767C36.8509 43.3413 37.3797 44.1493 37.7147 45.0427C38.0497 45.936 38.1826 46.8925 38.1038 47.8434V55.4642C38.1038 56.3684 38.6205 57.0917 40.0413 56.8075C45.6414 55.0106 50.5303 51.4899 54.0099 46.7484C57.4895 42.0069 59.3817 36.287 59.4163 30.4059C59.3346 22.949 56.2954 15.8298 50.9669 10.6127C45.6384 5.3956 38.4566 2.50759 30.9997 2.58336Z" fill="#6EA7A1"/>
</g>
<defs>
<clipPath id="clip0_511_1540">
<rect width="62" height="62" fill="white"/>
</clipPath>
</defs>
</svg>
